<svg width="44" height="37" viewBox="0 0 44 37" fill="none" xmlns="http://www.w3.org/2000/svg">
<path d="M39.9742 16.8908C41.6974 16.8908 43.0795 18.2729 43.0795 19.9961C43.0795 21.7193 41.6974 23.1014 39.9742 23.1014C38.251 23.1014 36.8689 21.7193 36.8689 19.9961C36.8689 19.4217 37.0304 18.8652 37.2997 18.3985L33.4943 12.1879C33.4225 12.1879 33.3507 12.1879 33.2789 12.1879C33.1533 12.1879 33.0456 12.1879 32.9199 12.17L26.458 21.6654C26.6913 22.0962 26.817 22.5988 26.817 23.1193C26.817 24.8425 25.4349 26.2247 23.7117 26.2247C21.9885 26.2247 20.6064 24.8425 20.6064 23.1193C20.6064 22.6885 20.6961 22.2936 20.8397 21.9167L16.4061 16.5677C16.2087 16.6215 15.9933 16.6395 15.7779 16.6395C15.6881 16.6395 15.5804 16.6395 15.4907 16.6215L5.81573 31.5557C6.06703 32.0045 6.21063 32.525 6.21063 33.0815C6.21063 34.8047 4.81055 36.1868 3.10531 36.1868C1.40008 36.1868 0 34.8047 0 33.0815C0 31.3583 1.40008 29.9762 3.10531 29.9762C3.19506 29.9762 3.30276 29.9762 3.39251 29.9941L13.0675 15.0599C12.8162 14.6111 12.6726 14.0906 12.6726 13.5341C12.6726 11.811 14.0547 10.4288 15.7779 10.4288C17.5011 10.4288 18.8832 11.811 18.8832 13.5341C18.8832 13.9649 18.7934 14.3598 18.6498 14.7368L23.0834 20.1038C23.2988 20.0679 23.5142 20.032 23.7296 20.032C23.8553 20.032 23.963 20.032 24.0886 20.0499L30.5506 10.5545C30.3172 10.1237 30.1916 9.62109 30.1916 9.10055C30.1916 7.37737 31.5737 5.99523 33.2969 5.99523C35.0201 5.99523 36.4022 7.37737 36.4022 9.10055C36.4022 9.67494 36.2406 10.2314 35.9714 10.6981L39.7947 16.9087C39.8306 16.8908 39.9024 16.8908 39.9742 16.8908ZM33.7277 24.2861C34.0508 23.5501 34.8944 23.227 35.6303 23.5501C36.3663 23.8732 36.6894 24.7169 36.3663 25.4528C34.9303 28.6838 32.5968 31.4121 29.6531 33.3148C26.817 35.1637 23.4245 36.2406 19.7807 36.2406C17.86 36.2406 16.0112 35.9355 14.2521 35.3791C12.4392 34.8047 10.7699 33.9431 9.26209 32.8661C8.6159 32.3994 8.45435 31.5019 8.92105 30.8557C9.38774 30.2095 10.2852 30.048 10.9314 30.5147C12.2059 31.4301 13.6239 32.1481 15.1317 32.6327C16.5856 33.0994 18.1472 33.3507 19.7807 33.3507C22.8501 33.3507 25.7041 32.4532 28.0914 30.8916C30.5506 29.2941 32.525 26.9965 33.7277 24.2861ZM5.25929 22.7603C5.49264 23.5142 5.07979 24.322 4.3259 24.5733C3.57201 24.8066 2.76427 24.3938 2.51297 23.6399C2.22577 22.7603 2.01038 21.8449 1.86678 20.9295C1.72318 19.9961 1.65138 19.0627 1.65138 18.1293C1.65138 13.1213 3.67971 8.59795 6.96452 5.31314C10.2493 2.02833 14.7727 0 19.7807 0C21.6834 0 23.5322 0.305147 25.2733 0.843641C27.0503 1.40008 28.7197 2.24372 30.2454 3.32071C30.8916 3.76946 31.0532 4.66695 30.5865 5.33109C30.1377 5.97728 29.2402 6.13883 28.5761 5.67214C27.3196 4.7926 25.9195 4.0746 24.3938 3.60791C22.9398 3.14121 21.3962 2.88992 19.7807 2.88992C15.5804 2.88992 11.7571 4.59515 9.0108 7.35942C6.24653 10.1237 4.5413 13.929 4.5413 18.1293C4.5413 18.955 4.59515 19.7448 4.7208 20.4807C4.84645 21.2705 5.02594 22.0244 5.25929 22.7603Z" fill="#29313D" fill-opacity="0.8"/>
</svg>
