<svg width="42" height="33" viewBox="0 0 42 33" fill="none" xmlns="http://www.w3.org/2000/svg">
<path fill-rule="evenodd" clip-rule="evenodd" d="M16.5137 25.3979L13.9007 28.0109C15.9562 29.2128 18.3427 29.8922 20.9034 29.8922C23.4467 29.8922 25.8506 29.2128 27.9061 28.0109L25.2932 25.3979C23.9693 26.025 22.4712 26.3734 20.9034 26.3734C19.3356 26.356 17.855 26.0076 16.5137 25.3979ZM7.38573 0L14.9285 7.54273C11.4271 10.0163 9.80707 14.4061 10.8522 18.552C11.009 19.1965 11.2355 19.8062 11.5142 20.3985L8.90124 23.0114C8.58769 22.4714 8.30897 21.914 8.0651 21.3391C6.16635 16.7578 6.88056 11.4447 9.91158 7.52531L7.40315 5.01688C2.21207 11.3751 2.21207 20.6598 7.40315 27.018C11.8974 22.5237 16.4091 18.012 20.9034 13.5177C25.3977 18.012 29.9094 22.5237 34.4037 27.018C39.5948 20.6598 39.5948 11.3751 34.4037 5.01688L31.8952 7.52531C34.9437 11.4622 35.6405 16.7578 33.7243 21.3391C33.4804 21.914 33.2017 22.4714 32.8882 23.0114L30.2752 20.3985C30.5539 19.8062 30.763 19.1965 30.9372 18.552C31.9823 14.3887 30.3623 10.0163 26.861 7.54273L34.4211 0C44.2458 8.29178 44.3155 23.656 34.4211 32.0174C29.9094 27.5057 25.4151 23.0114 20.9034 18.4997C16.3917 23.0114 11.8974 27.5057 7.38573 32.0174C-2.50867 23.6734 -2.42157 8.29178 7.38573 0Z" fill="#29313D" fill-opacity="0.8"/>
</svg>
